<svg id="visual" viewBox="0 0 900 600" width="900" height="600" xmlns="http://www.w3.org/2000/svg" xmlns:xlink="http://www.w3.org/1999/xlink" version="1.1"><rect x="0" y="0" width="900" height="600" fill="#001220"></rect><defs><linearGradient id="grad1_0" x1="33.3%" y1="0%" x2="100%" y2="100%"><stop offset="20%" stop-color="#001220" stop-opacity="1"></stop><stop offset="80%" stop-color="#001220" stop-opacity="1"></stop></linearGradient></defs><defs><linearGradient id="grad2_0" x1="0%" y1="0%" x2="66.7%" y2="100%"><stop offset="20%" stop-color="#001220" stop-opacity="1"></stop><stop offset="80%" stop-color="#001220" stop-opacity="1"></stop></linearGradient></defs><g transform="translate(900, 0)"><path d="M0 378.6C-71.8 371.9 -143.7 365.3 -189.3 327.9C-234.9 290.4 -254.3 222.3 -281.5 162.5C-308.6 102.7 -343.6 51.4 -378.6 0L0 0Z" fill="#0c3a68"></path></g><g transform="translate(0, 600)"><path d="M0 -378.6C67.6 -369.5 135.1 -360.3 189.3 -327.9C243.4 -295.4 284.2 -239.5 313.5 -181C342.8 -122.5 360.7 -61.2 378.6 0L0 0Z" fill="#0c3a68"></path></g></svg>